<svg width="33" height="33" viewBox="0 0 33 33" fill="none" xmlns="http://www.w3.org/2000/svg">
<path d="M8.83364 8.65654L8.75797 8.7309H8.86406H11.8125C12.2203 8.7309 12.5503 9.0612 12.5503 9.46875C12.5503 9.8763 12.2203 10.2066 11.8125 10.2066H7.125C6.71721 10.2066 6.38715 9.8763 6.38715 9.46875V4.78125C6.38715 4.3737 6.71721 4.0434 7.125 4.0434C7.53279 4.0434 7.86285 4.3737 7.86285 4.78125V7.44609V7.54752L7.93622 7.47749C10.2332 5.28508 13.2512 4.0434 16.5 4.0434C23.3685 4.0434 28.9566 9.63152 28.9566 16.5C28.9566 23.3685 23.3685 28.9566 16.5 28.9566C9.63152 28.9566 4.0434 23.3685 4.0434 16.5C4.0434 16.0925 4.37346 15.7622 4.78125 15.7622C5.18904 15.7622 5.5191 16.0925 5.5191 16.5C5.5191 22.555 10.445 27.4809 16.5 27.4809C22.555 27.4809 27.4809 22.555 27.4809 16.5C27.4809 10.445 22.555 5.5191 16.5 5.5191C13.582 5.5191 10.8719 6.65361 8.83364 8.65654Z" fill="#67DAB1" stroke="black" stroke-width="0.0868054"/>
<path d="M16.5282 23.0367L16.5007 23.0369C16.4381 23.0374 16.3763 23.0239 16.319 22.9973C16.262 22.9709 16.2109 22.9322 16.1687 22.8837M16.5282 23.0367L12.8501 20.4435C12.8901 20.4895 12.9384 20.5262 12.992 20.551C13.0456 20.5759 13.1034 20.5885 13.1618 20.588V20.6158H13.1619C13.1619 20.6158 13.1619 20.6158 13.162 20.6158L16.0275 20.6158V22.5145C16.0239 22.5835 16.0346 22.6525 16.0591 22.7164C16.0835 22.7802 16.1209 22.8374 16.1687 22.8837M16.5282 23.0367V23.0241C16.5811 23.021 16.6332 23.0079 16.6819 22.9853C16.7388 22.9588 16.79 22.9201 16.8322 22.8716L16.5282 23.0367ZM16.1687 22.8837C16.1684 22.8834 16.1681 22.8831 16.1678 22.8828L16.1888 22.8646L16.1696 22.8846C16.1693 22.8843 16.169 22.884 16.1687 22.8837ZM12.8296 19.7503C12.7855 19.7967 12.7506 19.852 12.7267 19.913C12.7028 19.9742 12.6905 20.0399 12.6905 20.1062C12.6905 20.1726 12.7028 20.2383 12.7267 20.2995C12.7506 20.3604 12.7855 20.4158 12.8296 20.4622L13.162 19.5966L13.1618 19.6244V19.5966H13.1619C13.0994 19.5961 13.0376 19.6096 12.9803 19.6362C12.9232 19.6627 12.8719 19.7016 12.8296 19.7503ZM12.8296 19.7503C12.8297 19.7501 12.8299 19.75 12.83 19.7498L12.8501 19.769L12.8292 19.7508C12.8293 19.7506 12.8294 19.7504 12.8296 19.7503ZM16.0275 19.5966V19.6244H16.0553V19.5966H16.0275ZM16.0553 16.9745V17.0023H16.0275V16.9745H16.0553ZM16.0275 10.4701V12.3695L16.812 22.8525C16.8557 22.8103 16.8903 22.7582 16.9134 22.6999C16.9365 22.6417 16.9475 22.5786 16.9456 22.5152H16.9734V22.5148V20.6158H18.7262C19.2951 20.6158 19.8402 20.3712 20.2418 19.9366C20.6433 19.502 20.8685 18.9131 20.8685 18.2994C20.8685 17.6858 20.6433 17.0969 20.2418 16.6623C19.8402 16.2277 19.2951 15.9831 18.7262 15.9831H16.9734V13.3887H19.8386C19.9014 13.3908 19.9638 13.378 20.0214 13.3513C20.0789 13.3246 20.13 13.2848 20.1715 13.2348C20.2155 13.1885 20.2503 13.1332 20.2742 13.0724C20.2981 13.0112 20.3104 12.9455 20.3104 12.8791C20.3104 12.8128 20.2981 12.7471 20.2742 12.6859C20.2503 12.625 20.2155 12.5697 20.1715 12.5234C20.13 12.4734 20.0789 12.4336 20.0214 12.407C19.9638 12.3802 19.9014 12.3674 19.8386 12.3695H16.9734V10.4701C16.9734 10.3356 16.924 10.2063 16.8356 10.1105C16.7471 10.0148 16.6266 9.9605 16.5004 9.9605C16.3743 9.9605 16.2538 10.0148 16.1653 10.1105C16.0768 10.2063 16.0275 10.3356 16.0275 10.4701ZM13.4294 13.7678C13.654 13.5248 13.9581 13.3887 14.2747 13.3887H16.0275V15.9831H14.2747C13.9581 15.9831 13.654 15.847 13.4294 15.6039C13.2048 15.3608 13.0782 15.0306 13.0782 14.6859C13.0782 14.3412 13.2048 14.011 13.4294 13.7678ZM18.7262 19.6087H16.9734V17.0143H18.7262C19.0428 17.0143 19.3469 17.1504 19.5714 17.3934C19.7961 17.6366 19.9226 17.9668 19.9226 18.3115C19.9226 18.6562 19.7961 18.9864 19.5714 19.2295C19.3469 19.4726 19.0428 19.6087 18.7262 19.6087Z" fill="#67DAB1" stroke="#67DAB1" stroke-width="0.0555538"/>
</svg>
