<svg width="28" height="28" viewBox="0 0 28 28" fill="none" xmlns="http://www.w3.org/2000/svg">
<g clip-path="url(#clip0_4331_4657)">
<path d="M6.62699 19.5712C6.4512 19.5712 6.30445 19.5131 6.18674 19.4046L4.90116 18.2046C4.84154 18.1496 4.79416 18.0823 4.76053 18.0074C4.7269 17.9325 4.70855 17.853 4.7055 17.7705C4.70244 17.6879 4.7162 17.6069 4.74677 17.5305C4.77581 17.4541 4.82014 17.3853 4.8767 17.3257C4.99746 17.1973 5.16256 17.1254 5.33529 17.1254C5.49427 17.1254 5.6456 17.185 5.75872 17.2951L6.59642 18.0594L8.35129 16.1639C8.46746 16.0386 8.63714 15.9667 8.81294 15.9667C8.97191 15.9667 9.12172 16.0248 9.23331 16.1303C9.35407 16.2434 9.42439 16.3993 9.43203 16.569C9.43815 16.7371 9.38159 16.8961 9.27 17.0153L7.08558 19.3725C6.97246 19.4948 6.82724 19.5621 6.65756 19.5728H6.62699V19.5712ZM11.832 18.3575C11.4926 18.3575 11.2068 18.0716 11.2068 17.7323C11.2068 17.3929 11.4926 17.1071 11.832 17.1071H22.6761C23.0155 17.1071 23.3013 17.3944 23.3013 17.7323C23.3013 18.0701 23.014 18.3575 22.6761 18.3575H11.832ZM6.62699 12.0396C6.4512 12.0396 6.30445 11.9816 6.18674 11.873L4.90116 10.673C4.84154 10.6165 4.79416 10.5508 4.76053 10.4758C4.7269 10.4009 4.70855 10.3215 4.7055 10.2389C4.70244 10.1564 4.7162 10.0753 4.74677 9.99892C4.77581 9.92248 4.82014 9.85217 4.8767 9.79255C4.99746 9.66415 5.16256 9.5923 5.33529 9.5923C5.49427 9.5923 5.6456 9.65344 5.75872 9.76198L6.59642 10.5263L8.35129 8.63079C8.46746 8.50544 8.63714 8.43359 8.81294 8.43359C8.97191 8.43359 9.12172 8.49168 9.23331 8.59716C9.48248 8.82951 9.49929 9.2346 9.26847 9.48224L7.08405 11.8409C6.97093 11.9617 6.82571 12.0305 6.65603 12.0412H6.62546L6.62699 12.0396ZM11.832 10.8397C11.4926 10.8397 11.2068 10.5538 11.2068 10.2145C11.2068 9.8751 11.4926 9.58924 11.832 9.58924H22.6761C23.0155 9.58924 23.3013 9.8751 23.3013 10.2145C23.3013 10.5538 23.014 10.8397 22.6761 10.8397H11.832Z" fill="#67DAB1"/>
<path d="M3.87967 28C1.74111 28 0 26.2604 0 24.1203V3.87967C0 1.73959 1.73959 0 3.87967 0H24.1219C26.2604 0 28.0015 1.73959 28.0015 3.87967V24.1219C28.0015 26.2604 26.2619 28.0015 24.1219 28.0015H3.87967V28ZM3.87967 1.25195C2.43053 1.25195 1.25195 2.43053 1.25195 3.87967V24.1219C1.25195 25.571 2.43053 26.7496 3.87967 26.7496H24.1219C25.571 26.7496 26.7496 25.571 26.7496 24.1219V3.87967C26.7496 2.43053 25.571 1.25195 24.1219 1.25195H3.87967Z" fill="#67DAB1"/>
</g>
<defs>
<clipPath id="clip0_4331_4657">
<rect width="28" height="28" fill="white"/>
</clipPath>
</defs>
</svg>
