<svg width="29" height="29" viewBox="0 0 29 29" fill="none" xmlns="http://www.w3.org/2000/svg">
<path d="M14.5001 28.2289C11.3328 28.2278 8.26319 27.1318 5.81149 25.1265C3.35979 23.1212 1.67676 20.33 1.04758 17.2258C0.418401 14.1215 0.88177 10.8953 2.35917 8.09359C3.83657 5.29192 6.23714 3.08718 9.15411 1.85295C12.5085 0.435101 16.2888 0.407869 19.6633 1.77724C23.0379 3.14662 25.7302 5.80042 27.148 9.15486C28.5659 12.5093 28.5931 16.2896 27.2237 19.6641C25.8543 23.0386 23.2005 25.7309 19.8461 27.1488C18.155 27.8649 16.3366 28.2323 14.5001 28.2289ZM14.5001 1.82886C11.367 1.83231 8.34679 2.99937 6.02545 5.10364C3.70412 7.20791 2.24711 10.0994 1.93706 13.2171C1.62702 16.3349 2.48605 19.4567 4.34751 21.9769C6.20897 24.4972 8.94016 26.2361 12.0113 26.8566C15.0824 27.477 18.2744 26.9346 20.9683 25.3347C23.6621 23.7347 25.6656 21.1912 26.5902 18.1976C27.5148 15.204 27.2945 11.9736 25.9721 9.13326C24.6496 6.29287 22.3194 4.04491 19.4333 2.82546C17.8727 2.16476 16.1948 1.82579 14.5001 1.82886Z" fill="#67DAB1"/>
<path d="M14.4999 25.6468C11.745 25.6434 9.08952 24.617 7.04859 22.7666C5.00765 20.9161 3.72675 18.3736 3.45438 15.6321C3.182 12.8907 3.93756 10.1458 5.57449 7.92996C7.21142 5.7141 9.61302 4.1852 12.3134 3.63986C15.0138 3.09452 17.8205 3.57161 20.1891 4.97859C22.5576 6.38556 24.3192 8.62211 25.132 11.2544C25.9448 13.8867 25.751 16.727 24.5881 19.2245C23.4252 21.7219 21.3762 23.6985 18.8384 24.7706C17.4659 25.3515 15.9903 25.6495 14.4999 25.6468ZM14.4999 4.4106C8.93647 4.4106 4.40985 8.93721 4.40985 14.5007C4.40985 20.0642 8.93647 24.5908 14.4999 24.5908C20.0634 24.5908 24.59 20.0642 24.59 14.5007C24.59 8.93721 20.0634 4.4106 14.4999 4.4106Z" fill="#67DAB1"/>
<path d="M14.5277 21.0386L14.5002 21.0388C14.4377 21.0393 14.3758 21.0258 14.3185 20.9993C14.2616 20.9728 14.2104 20.9341 14.1682 20.8856M14.5277 21.0386L10.8497 18.4454C10.8896 18.4915 10.9379 18.5281 10.9915 18.553C11.0451 18.5779 11.1029 18.5905 11.1613 18.59V18.6178H11.1614C11.1614 18.6178 11.1615 18.6178 11.1615 18.6178L14.027 18.6178V20.5165C14.0234 20.5854 14.0341 20.6544 14.0586 20.7184C14.083 20.7821 14.1204 20.8393 14.1682 20.8856M14.5277 21.0386V21.0261C14.5806 21.023 14.6327 21.0098 14.6814 20.9872C14.7383 20.9608 14.7895 20.9221 14.8317 20.8736L14.5277 21.0386ZM14.1682 20.8856C14.1679 20.8853 14.1676 20.885 14.1673 20.8847L14.1883 20.8665L14.1691 20.8865C14.1688 20.8862 14.1685 20.8859 14.1682 20.8856ZM10.8291 17.7522C10.785 17.7986 10.7501 17.8539 10.7262 17.9149C10.7023 17.9761 10.69 18.0418 10.69 18.1082C10.69 18.1745 10.7023 18.2402 10.7262 18.3014C10.7501 18.3624 10.785 18.4177 10.8291 18.4641L11.1615 17.5986L11.1613 17.6264V17.5986H11.1614C11.0989 17.5981 11.0371 17.6116 10.9798 17.6382C10.9227 17.6647 10.8714 17.7035 10.8291 17.7522ZM10.8291 17.7522C10.8292 17.7521 10.8294 17.7519 10.8296 17.7517L10.8497 17.7709L10.8287 17.7527C10.8288 17.7525 10.829 17.7524 10.8291 17.7522ZM14.027 17.5986V17.6264H14.0548V17.5986H14.027ZM14.0548 14.9764V15.0042H14.027V14.9764H14.0548ZM14.027 8.47204V10.3715L14.8116 20.8545C14.8552 20.8122 14.8898 20.7601 14.9129 20.7019C14.936 20.6436 14.947 20.5806 14.9451 20.5172H14.9729V20.5168V18.6178H16.7257C17.2946 18.6178 17.8398 18.3731 18.2413 17.9385C18.6428 17.504 18.868 16.9151 18.868 16.3014C18.868 15.6877 18.6428 15.0988 18.2413 14.6643C17.8398 14.2297 17.2946 13.985 16.7257 13.985H14.9729V11.3907H17.8382C17.9009 11.3928 17.9633 11.38 18.0209 11.3532C18.0784 11.3266 18.1296 11.2868 18.171 11.2368C18.215 11.1905 18.2499 11.1352 18.2737 11.0743C18.2976 11.0131 18.3099 10.9474 18.3099 10.8811C18.3099 10.8147 18.2976 10.749 18.2737 10.6878C18.2499 10.627 18.215 10.5717 18.171 10.5254C18.1296 10.4753 18.0784 10.4355 18.0209 10.4089C17.9633 10.3822 17.9009 10.3694 17.8382 10.3715H14.9729V8.47204C14.9729 8.33757 14.9235 8.20821 14.8351 8.1125C14.7466 8.01673 14.6261 7.96246 14.4999 7.96246C14.3738 7.96246 14.2533 8.01673 14.1648 8.1125C14.0763 8.20821 14.027 8.33757 14.027 8.47204ZM11.4289 11.7698C11.6535 11.5267 11.9576 11.3907 12.2742 11.3907H14.027V13.985H12.2742C11.9576 13.985 11.6535 13.849 11.4289 13.6059C11.2043 13.3628 11.0778 13.0326 11.0778 12.6878C11.0778 12.3431 11.2043 12.0129 11.4289 11.7698ZM16.7257 17.6106H14.9729V15.0163H16.7257C17.0423 15.0163 17.3464 15.1523 17.571 15.3954C17.7956 15.6385 17.9221 15.9687 17.9221 16.3134C17.9221 16.6582 17.7956 16.9884 17.571 17.2315C17.3464 17.4745 17.0423 17.6106 16.7257 17.6106Z" fill="#67DAB1" stroke="#67DAB1" stroke-width="0.0555538"/>
<path d="M14.5002 10.2637C14.3601 10.2637 14.2258 10.2081 14.1268 10.1091C14.0278 10.0101 13.9722 9.87575 13.9722 9.73572V8.27019C13.9722 8.13015 14.0278 7.99585 14.1268 7.89683C14.2258 7.79782 14.3601 7.74219 14.5002 7.74219C14.6402 7.74219 14.7745 7.79782 14.8735 7.89683C14.9725 7.99585 15.0282 8.13015 15.0282 8.27019V9.73572C15.0282 9.87575 14.9725 10.0101 14.8735 10.1091C14.7745 10.2081 14.6402 10.2637 14.5002 10.2637ZM14.5002 21.261C14.3601 21.261 14.2258 21.2053 14.1268 21.1063C14.0278 21.0073 13.9722 20.873 13.9722 20.733V19.2674C13.9722 19.1274 14.0278 18.9931 14.1268 18.8941C14.2258 18.7951 14.3601 18.7394 14.5002 18.7394C14.6402 18.7394 14.7745 18.7951 14.8735 18.8941C14.9725 18.9931 15.0282 19.1274 15.0282 19.2674V20.733C15.0282 20.873 14.9725 21.0073 14.8735 21.1063C14.7745 21.2053 14.6402 21.261 14.5002 21.261Z" fill="#67DAB1"/>
</svg>
