<svg width="33" height="33" viewBox="0 0 33 33" fill="none" xmlns="http://www.w3.org/2000/svg">
<path d="M16.1348 29.4621C16.0711 29.462 16.0082 29.4479 15.9505 29.4207C15.8929 29.3934 15.842 29.3538 15.8014 29.3046L1.09873 11.4711C1.0466 11.4079 1.01352 11.3311 1.00334 11.2498C0.99317 11.1684 1.00632 11.0859 1.04126 11.0118C1.07621 10.9376 1.1315 10.8749 1.2007 10.831C1.26991 10.7871 1.35017 10.7637 1.43213 10.7637H30.8375C30.9195 10.7637 30.9998 10.7871 31.069 10.831C31.1382 10.8749 31.1935 10.9376 31.2284 11.0118C31.2634 11.0859 31.2765 11.1684 31.2663 11.2498C31.2562 11.3311 31.2231 11.4079 31.1709 11.4711L16.4682 29.3046C16.4277 29.3538 16.3768 29.3934 16.3192 29.4207C16.2615 29.4479 16.1986 29.462 16.1348 29.4621ZM2.34932 11.6285L16.1348 28.3498L29.9204 11.6285H2.34932Z" fill="#67DAB1"/>
<path d="M16.1352 29.4616C16.0493 29.4616 15.9653 29.4361 15.894 29.3882C15.8227 29.3402 15.7673 29.2722 15.7348 29.1926L8.44615 11.3596C8.41933 11.2939 8.40909 11.2226 8.41631 11.1521C8.42354 11.0815 8.44801 11.0138 8.48757 10.9549C8.52714 10.896 8.58058 10.8478 8.64319 10.8144C8.70579 10.7811 8.77564 10.7637 8.84658 10.7637H23.4239C23.4948 10.7637 23.5647 10.7811 23.6273 10.8144C23.6899 10.8478 23.7433 10.896 23.7829 10.9549C23.8224 11.0138 23.8469 11.0815 23.8541 11.1521C23.8614 11.2226 23.8511 11.2939 23.8243 11.3596L16.5357 29.1926C16.5032 29.2722 16.4478 29.3402 16.3764 29.3882C16.3051 29.4361 16.2211 29.4616 16.1352 29.4616ZM9.49047 11.6281L16.1352 27.8876L22.78 11.6281H9.49047Z" fill="#67DAB1"/>
<path d="M30.8377 11.6281H1.43232C1.35329 11.6281 1.27578 11.6064 1.20821 11.5654C1.14063 11.5245 1.08558 11.4657 1.04903 11.3957C1.01248 11.3256 0.995827 11.2469 1.00089 11.168C1.00595 11.0891 1.03252 11.0131 1.07773 10.9483L5.79989 4.18508C5.83973 4.12796 5.89277 4.0813 5.9545 4.04908C6.01624 4.01685 6.08484 4.00002 6.15449 4H26.1156C26.1852 4.00002 26.2538 4.01685 26.3155 4.04908C26.3773 4.0813 26.4303 4.12796 26.4702 4.18508L31.1923 10.9483C31.2375 11.0131 31.2641 11.0891 31.2692 11.168C31.2742 11.2469 31.2576 11.3256 31.221 11.3957C31.1845 11.4657 31.1294 11.5245 31.0618 11.5654C30.9943 11.6064 30.9168 11.6281 30.8377 11.6281ZM2.26173 10.7632H30.0083L25.8903 4.86487H6.37978L2.26173 10.7632Z" fill="#67DAB1"/>
<path d="M23.4236 11.6281H8.84633C8.77354 11.6278 8.70199 11.6092 8.63833 11.5739C8.57466 11.5386 8.52094 11.4878 8.48212 11.4262C8.44331 11.3647 8.42067 11.2943 8.41631 11.2216C8.41194 11.149 8.42598 11.0764 8.45714 11.0106L11.6632 4.24735C11.6981 4.1736 11.7532 4.11124 11.8221 4.06747C11.8909 4.0237 11.9708 4.00031 12.0524 4H20.2176C20.2992 4.00031 20.379 4.0237 20.4479 4.06747C20.5168 4.11124 20.5718 4.1736 20.6068 4.24735L23.8128 11.0106C23.844 11.0764 23.858 11.149 23.8536 11.2216C23.8493 11.2943 23.8266 11.3647 23.7878 11.4262C23.749 11.4878 23.6953 11.5386 23.6316 11.5739C23.568 11.6092 23.4964 11.6278 23.4236 11.6281ZM9.53 10.7632H22.7399L19.9443 4.86487H12.3257L9.53 10.7632Z" fill="#67DAB1"/>
</svg>
